<svg width="193" height="36" viewBox="0 0 193 36" fill="none" xmlns="http://www.w3.org/2000/svg">
<defs>
<linearGradient id="paint0_linear" x1="35.55" y1="0" x2="35.55" y2="34.1192" gradientUnits="userSpaceOnUse">
<stop stop-color="#FFE2AA"/>
<stop offset="0.441034" stop-color="#FF8F91"/>
<stop offset="1" stop-color="#8225FB"/>
</linearGradient>
<linearGradient id="paint1_linear" x1="45.5366" y1="19.1856" x2="59.38" y2="32.0351" gradientUnits="userSpaceOnUse">
<stop stop-color="#0046F9"/>
<stop offset="1" stop-color="#5298FF"/>
</linearGradient>
<linearGradient id="paint2_linear" x1="4.66408" y1="1.03749" x2="3.6252" y2="8.32282" gradientUnits="userSpaceOnUse">
<stop stop-color="#FFE2AA"/>
<stop offset="0.521417" stop-color="#FF8F91"/>
<stop offset="1" stop-color="#8225FB"/>
</linearGradient>
<linearGradient id="paint3_linear" x1="24.1594" y1="1.24442" x2="24.9081" y2="8.61796" gradientUnits="userSpaceOnUse">
<stop stop-color="#FFE2AA"/>
<stop offset="0.447344" stop-color="#FF8F91"/>
<stop offset="1" stop-color="#8225FB"/>
</linearGradient>
<linearGradient id="paint4_linear" x1="-1.52932e-07" y1="18.2522" x2="29.347" y2="18.517" gradientUnits="userSpaceOnUse">
<stop stop-color="#074DFF"/>
<stop offset="0.509807" stop-color="#4A93FF"/>
<stop offset="1" stop-color="#074DFF"/>
</linearGradient>
<linearGradient id="paint5_linear" x1="38.6179" y1="23.956" x2="54.38" y2="2.2519" gradientUnits="userSpaceOnUse">
<stop stop-color="#074DFF"/>
<stop offset="1" stop-color="#72DBFD"/>
</linearGradient>
</defs>
<path d="M76.512 9.32V19.952C76.512 21.216 76.84 22.168 77.496 22.808C78.168 23.448 79.096 23.768 80.28 23.768C81.48 23.768 82.408 23.448 83.064 22.808C83.736 22.168 84.072 21.216 84.072 19.952V9.32H86.808V19.904C86.808 21.264 86.512 22.416 85.92 23.36C85.328 24.304 84.536 25.008 83.544 25.472C82.552 25.936 81.456 26.168 80.256 26.168C79.056 26.168 77.96 25.936 76.968 25.472C75.992 25.008 75.216 24.304 74.64 23.36C74.064 22.416 73.776 21.264 73.776 19.904V9.32H76.512ZM99.5623 26L93.1063 18.536V26H90.3703V9.32H93.1063V16.928L99.5863 9.32H103.018L95.7703 17.672L103.138 26H99.5623ZM117.24 9.32C119.016 9.32 120.568 9.664 121.896 10.352C123.24 11.024 124.272 12 124.992 13.28C125.728 14.544 126.096 16.024 126.096 17.72C126.096 19.416 125.728 20.888 124.992 22.136C124.272 23.384 123.24 24.344 121.896 25.016C120.568 25.672 119.016 26 117.24 26H111.792V9.32H117.24ZM117.24 23.768C119.192 23.768 120.688 23.24 121.728 22.184C122.768 21.128 123.288 19.64 123.288 17.72C123.288 15.784 122.768 14.272 121.728 13.184C120.688 12.096 119.192 11.552 117.24 11.552H114.528V23.768H117.24ZM140.928 19.064C140.928 19.56 140.896 20.008 140.832 20.408H130.728C130.808 21.464 131.2 22.312 131.904 22.952C132.608 23.592 133.472 23.912 134.496 23.912C135.968 23.912 137.008 23.296 137.616 22.064H140.568C140.168 23.28 139.44 24.28 138.384 25.064C137.344 25.832 136.048 26.216 134.496 26.216C133.232 26.216 132.096 25.936 131.088 25.376C130.096 24.8 129.312 24 128.736 22.976C128.176 21.936 127.896 20.736 127.896 19.376C127.896 18.016 128.168 16.824 128.712 15.8C129.272 14.76 130.048 13.96 131.04 13.4C132.048 12.84 133.2 12.56 134.496 12.56C135.744 12.56 136.856 12.832 137.832 13.376C138.808 13.92 139.568 14.688 140.112 15.68C140.656 16.656 140.928 17.784 140.928 19.064ZM138.072 18.2C138.056 17.192 137.696 16.384 136.992 15.776C136.288 15.168 135.416 14.864 134.376 14.864C133.432 14.864 132.624 15.168 131.952 15.776C131.28 16.368 130.88 17.176 130.752 18.2H138.072ZM148.42 26.216C147.38 26.216 146.444 26.032 145.612 25.664C144.796 25.28 144.148 24.768 143.668 24.128C143.188 23.472 142.932 22.744 142.9 21.944H145.732C145.78 22.504 146.044 22.976 146.524 23.36C147.02 23.728 147.636 23.912 148.372 23.912C149.14 23.912 149.732 23.768 150.148 23.48C150.58 23.176 150.796 22.792 150.796 22.328C150.796 21.832 150.556 21.464 150.076 21.224C149.612 20.984 148.868 20.72 147.844 20.432C146.852 20.16 146.044 19.896 145.42 19.64C144.796 19.384 144.252 18.992 143.788 18.464C143.34 17.936 143.116 17.24 143.116 16.376C143.116 15.672 143.324 15.032 143.74 14.456C144.156 13.864 144.748 13.4 145.516 13.064C146.3 12.728 147.196 12.56 148.204 12.56C149.708 12.56 150.916 12.944 151.828 13.712C152.756 14.464 153.252 15.496 153.316 16.808H150.58C150.532 16.216 150.292 15.744 149.86 15.392C149.428 15.04 148.844 14.864 148.108 14.864C147.388 14.864 146.836 15 146.452 15.272C146.068 15.544 145.876 15.904 145.876 16.352C145.876 16.704 146.004 17 146.26 17.24C146.516 17.48 146.828 17.672 147.196 17.816C147.564 17.944 148.108 18.112 148.828 18.32C149.788 18.576 150.572 18.84 151.18 19.112C151.804 19.368 152.34 19.752 152.788 20.264C153.236 20.776 153.468 21.456 153.484 22.304C153.484 23.056 153.276 23.728 152.86 24.32C152.444 24.912 151.852 25.376 151.084 25.712C150.332 26.048 149.444 26.216 148.42 26.216ZM157.833 11.024C157.337 11.024 156.921 10.856 156.585 10.52C156.249 10.184 156.081 9.768 156.081 9.272C156.081 8.776 156.249 8.36 156.585 8.024C156.921 7.688 157.337 7.52 157.833 7.52C158.313 7.52 158.721 7.688 159.057 8.024C159.393 8.36 159.561 8.776 159.561 9.272C159.561 9.768 159.393 10.184 159.057 10.52C158.721 10.856 158.313 11.024 157.833 11.024ZM159.177 12.776V26H156.441V12.776H159.177ZM168.097 12.56C169.121 12.56 170.025 12.768 170.809 13.184C171.609 13.584 172.233 14.088 172.681 14.696V12.776H175.441V26.216C175.441 27.432 175.185 28.512 174.673 29.456C174.161 30.416 173.417 31.168 172.441 31.712C171.481 32.256 170.329 32.528 168.985 32.528C167.193 32.528 165.705 32.104 164.521 31.256C163.337 30.424 162.665 29.288 162.505 27.848H165.217C165.425 28.536 165.865 29.088 166.537 29.504C167.225 29.936 168.041 30.152 168.985 30.152C170.089 30.152 170.977 29.816 171.649 29.144C172.337 28.472 172.681 27.496 172.681 26.216V24.008C172.217 24.632 171.585 25.16 170.785 25.592C170.001 26.008 169.105 26.216 168.097 26.216C166.945 26.216 165.889 25.928 164.929 25.352C163.985 24.76 163.233 23.944 162.673 22.904C162.129 21.848 161.857 20.656 161.857 19.328C161.857 18 162.129 16.824 162.673 15.8C163.233 14.776 163.985 13.984 164.929 13.424C165.889 12.848 166.945 12.56 168.097 12.56ZM172.681 19.376C172.681 18.464 172.489 17.672 172.105 17C171.737 16.328 171.249 15.816 170.641 15.464C170.033 15.112 169.377 14.936 168.673 14.936C167.969 14.936 167.313 15.112 166.705 15.464C166.097 15.8 165.601 16.304 165.217 16.976C164.849 17.632 164.665 18.416 164.665 19.328C164.665 20.24 164.849 21.04 165.217 21.728C165.601 22.416 166.097 22.944 166.705 23.312C167.329 23.664 167.985 23.84 168.673 23.84C169.377 23.84 170.033 23.664 170.641 23.312C171.249 22.96 171.737 22.448 172.105 21.776C172.489 21.088 172.681 20.288 172.681 19.376ZM185.706 12.56C186.746 12.56 187.674 12.776 188.49 13.208C189.322 13.64 189.97 14.28 190.434 15.128C190.898 15.976 191.13 17 191.13 18.2V26H188.418V18.608C188.418 17.424 188.122 16.52 187.53 15.896C186.938 15.256 186.13 14.936 185.106 14.936C184.082 14.936 183.266 15.256 182.658 15.896C182.066 16.52 181.77 17.424 181.77 18.608V26H179.034V12.776H181.77V14.288C182.218 13.744 182.786 13.32 183.474 13.016C184.178 12.712 184.922 12.56 185.706 12.56Z" fill="black"/>
<path d="M35.5255 0L31.75 2.48894V34.1192H39.35V2.48894L35.5255 0Z" fill="url(#paint0_linear)"/>
<path d="M49.9911 34.6377L42.9688 22.556L48.3141 15.7114L60.0005 34.6377H49.9911Z" fill="url(#paint1_linear)"/>
<path d="M7.62491 2.00625L0 0.251709V6.261L7.62491 8.01554V2.00625Z" fill="url(#paint2_linear)"/>
<path d="M29.3476 6.21665L21.7227 7.97119V1.9619L29.3476 0.207358V6.21665Z" fill="url(#paint3_linear)"/>
<path d="M21.7221 8.837V21.4812C21.7221 25.333 18.5664 28.4555 14.6735 28.4555C10.7807 28.4555 7.62491 25.333 7.62491 21.4812V8.87476L0 7.46171V22.2547C0 22.3493 0.0015213 22.4436 0.00454091 22.5376C0.00151927 22.6472 0 22.7572 0 22.8675C0 30.1204 6.56956 36 14.6735 36C22.7775 36 29.347 30.1204 29.347 22.8675C29.347 22.7572 29.3455 22.6472 29.3425 22.5376C29.3455 22.4436 29.347 22.3493 29.347 22.2547V7.401L21.7221 8.837Z" fill="url(#paint4_linear)"/>
<path fill-rule="evenodd" clip-rule="evenodd" d="M39.666 14.0532L48.3086 2.48889H58.5844L39.666 26.6757V14.0532Z" fill="url(#paint5_linear)"/>

</svg>
